<mxfile host="app.diagrams.net" modified="2023-09-28T22:16:14.998Z" agent="Mozilla/5.0 (Macintosh; Intel Mac OS X 10_15_7) AppleWebKit/537.36 (KHTML, like Gecko) Chrome/117.0.0.0 Safari/537.36" version="21.8.2" etag="9mg5nRWzrs5WW0Fkv9MV" type="github">
  <diagram name="PÃ¡gina-1" id="kz3qCCOtKanPKsc4gqSp">
    <mxGraphModel>
      <root>
        <mxCell id="0" />
        <mxCell id="1" parent="0" />
      </root>
    </mxGraphModel>
  </diagram>
</mxfile>
